# xmcd
#
# Track frame offsets: 
#        150
#        14922
#        32550
#        43282
#        59540
#        76515
#        88539
#        110984
#        125719
#        139187
#
# Disc length: 2025 seconds
#
# Revision: 0
# Processed by: cddbd v1.5.2PL0 Copyright (c) Steve Scherf et al.
# Submitted via: ExactAudioCopy v0.95b4
#
DISCID=8e07e70a
DTITLE=Promised Land Quartet - Gotta Go Back
DYEAR=2002
DGENRE=Southern Gospel
TTITLE0=Gotta Go Back
TTITLE1=Without A Valley
TTITLE2=What A Morning
TTITLE3=Resting Place
TTITLE4=Next Cloud
TTITLE5=Joy's Gonna Come
TTITLE6=That's What Grace Is For
TTITLE7=Tomorrow
TTITLE8=I Have A Heavenly Father
TTITLE9=If God Be For Us
EXTD=
EXTT0=
EXTT1=
EXTT2=
EXTT3=
EXTT4=
EXTT5=
EXTT6=
EXTT7=
EXTT8=
EXTT9=
PLAYORDER=
